<?xml version="1.0" encoding="UTF-8"?>
<svg id="Layer_1" data-name="Layer 1" xmlns="http://www.w3.org/2000/svg" viewBox="0 0 2914.49 1422.22">
  <defs>
    <style>
      .cls-1 {
        fill: #bf984d;
      }

      .cls-2 {
        fill: #fff;
      }
    </style>
  </defs>
  <polygon class="cls-2" points="1216.84 860.92 1057.31 974.15 915.27 375.1 468.39 375.1 468.39 568.86 845.89 568.86 845.89 943.93 468.39 943.93 468.39 1419.89 0 1419.89 0 0 1269.47 0 1269.47 2.33 1303.68 2.33 1440.82 580.9 1217.21 739.6 1216.84 739.6 1216.84 860.92"/>
  <polygon class="cls-2" points="2914.49 2.33 2577.86 1422.22 2039.12 1422.22 1871.07 873.61 1842.99 965.23 1701.77 865.02 1701.77 742.04 1702.33 741.25 1478.1 582.11 1655.87 2.33 2085.77 2.33 2284.44 648.75 2437.73 2.33 2914.49 2.33"/>
  <path class="cls-1" d="M1630.43,901.74v-123.46l-171.13-128.12-171.13,128.12v120.67l-208.67,145.81v377.22h213.84v-.49h315.61v.49h213.84v-383.58l-192.36-136.65ZM1609.81,1085.57h-122.83v277.29h-71.67v-277.29h-122.84v-71.62h122.84v-134h71.67v134h122.83v71.62Z"/>
</svg>